<?xml version="1.0" encoding="UTF-8"?>
<!DOCTYPE svg PUBLIC "-//W3C//DTD SVG 1.1//EN" "http://www.w3.org/Graphics/SVG/1.1/DTD/svg11.dtd">
<svg xmlns="http://www.w3.org/2000/svg" xml:space="preserve" width="0.5in" height="0.35in" version="1.1" style="shape-rendering:geometricPrecision; text-rendering:geometricPrecision; image-rendering:optimizeQuality; fill-rule:evenodd; clip-rule:evenodd"
viewBox="0 0 500 350"
 xmlns:xlink="http://www.w3.org/1999/xlink">
 <defs>
  <style type="text/css">
   <![CDATA[
    .str0 {stroke:#000000;stroke-width:3;stroke-miterlimit:2.61313}
    .fil0 {fill:#000000;fill-rule:nonzero}
   ]]>
  </style>
 </defs>
 <g id="Layer_x0020_1">
  <metadata id="CorelCorpID_0Corel-Layer"/>
  <path class="fil0 str0" d="M239.28 120.68l0 143.08c0,20.79 -4.67,35.65 -14.06,44.63 -9.39,8.98 -24.93,13.51 -46.55,13.51l-93.58 0c-21.74,0 -37.34,-4.53 -46.79,-13.51 -9.45,-8.98 -14.18,-23.83 -14.18,-44.63l0 -69.59 46.79 -11.88 0 87.83c0,0 0,0 0,0 0,0 0,0 0,0l121.58 0c0,0 0,0 0,0 0,0 0,0 0,0l0 -248.23 46.79 0 95.18 175.28 97.48 -175.28 42.19 0 0 300 -46.79 0 0 -205.28 -96.41 173.14 -91.64 -169.07z"/>
 </g>
</svg>
